<svg width="60" height="60" viewBox="0 0 60 60" fill="none" xmlns="http://www.w3.org/2000/svg">
<circle cx="30" cy="30" r="30" fill="#3AAD81"/>
<path d="M28.0311 37.1155L34.0781 30.9971C34.2118 30.8645 34.3179 30.7068 34.3903 30.533C34.4627 30.3592 34.5 30.1727 34.5 29.9845C34.5 29.7962 34.4627 29.6098 34.3903 29.436C34.3179 29.2622 34.2118 29.1045 34.0781 28.9719L28.0311 22.9248C27.8985 22.7911 27.7407 22.685 27.5669 22.6126C27.3931 22.5402 27.2067 22.5029 27.0185 22.5029C26.8302 22.5029 26.6438 22.5402 26.47 22.6126C26.2962 22.685 26.1384 22.7911 26.0059 22.9248C25.7402 23.192 25.5911 23.5535 25.5911 23.9303C25.5911 24.307 25.7402 24.6685 26.0059 24.9357L31.0546 29.9845L26.0059 35.0332C25.7424 35.2989 25.5938 35.6574 25.5923 36.0316C25.5912 36.2192 25.6271 36.4053 25.6981 36.5791C25.7691 36.7528 25.8737 36.9109 26.0059 37.0442C26.1337 37.1826 26.2876 37.2943 26.4589 37.3729C26.6302 37.4515 26.8153 37.4954 27.0036 37.502C27.1919 37.5087 27.3797 37.4779 27.556 37.4116C27.7324 37.3452 27.8938 37.2446 28.0311 37.1155Z" fill="white"/>
</svg>
