<svg width="60" height="60" viewBox="0 0 60 60" fill="none" xmlns="http://www.w3.org/2000/svg">
<circle cx="30" cy="30" r="30" transform="matrix(-1 0 0 1 60 0)" fill="#3AAD81"/>
<path d="M31.9689 37.1155L25.9219 30.9971C25.7882 30.8645 25.6821 30.7068 25.6097 30.533C25.5373 30.3592 25.5 30.1727 25.5 29.9845C25.5 29.7962 25.5373 29.6098 25.6097 29.436C25.6821 29.2622 25.7882 29.1045 25.9219 28.9719L31.9689 22.9248C32.1015 22.7911 32.2593 22.685 32.4331 22.6126C32.6069 22.5402 32.7933 22.5029 32.9815 22.5029C33.1698 22.5029 33.3562 22.5402 33.53 22.6126C33.7038 22.685 33.8616 22.7911 33.9941 22.9248C34.2598 23.192 34.4089 23.5535 34.4089 23.9303C34.4089 24.307 34.2598 24.6685 33.9941 24.9357L28.9454 29.9845L33.9941 35.0332C34.2576 35.2989 34.4062 35.6574 34.4077 36.0316C34.4088 36.2192 34.3729 36.4053 34.3019 36.5791C34.2309 36.7528 34.1263 36.9109 33.9941 37.0442C33.8663 37.1826 33.7124 37.2943 33.5411 37.3729C33.3698 37.4515 33.1847 37.4954 32.9964 37.502C32.8081 37.5087 32.6203 37.4779 32.444 37.4116C32.2676 37.3452 32.1062 37.2446 31.9689 37.1155Z" fill="white"/>
</svg>
